<svg width="113" height="113" viewBox="0 0 113 113" fill="none" xmlns="http://www.w3.org/2000/svg">
<g clip-path="url(#clip0_1192_2)">
<mask id="mask0_1192_2" style="mask-type:luminance" maskUnits="userSpaceOnUse" x="0" y="0" width="869" height="113">
<path d="M869 0H0V113H869V0Z" fill="white"/>
</mask>
<g mask="url(#mask0_1192_2)">
<path d="M89.6992 93.6953C94.3659 97.1953 101.366 94.862 94.9492 88.4453C75.6992 69.7786 79.7825 18.4453 55.8659 18.4453C31.9492 18.4453 36.0325 69.7786 16.7825 88.4453C9.78253 95.4453 17.3658 97.1953 22.0325 93.6953C40.1159 81.4453 38.9492 59.862 55.8659 59.862C72.7825 59.862 71.6159 81.4453 89.6992 93.6953Z" fill="white"/>
<mask id="mask1_1192_2" style="mask-type:alpha" maskUnits="userSpaceOnUse" x="13" y="18" width="85" height="78">
<path d="M89.6992 93.6953C94.3659 97.1953 101.366 94.862 94.9492 88.4453C75.6992 69.7786 79.7825 18.4453 55.8659 18.4453C31.9492 18.4453 36.0325 69.7786 16.7825 88.4453C9.78253 95.4453 17.3658 97.1953 22.0325 93.6953C40.1159 81.4453 38.9492 59.862 55.8659 59.862C72.7825 59.862 71.6159 81.4453 89.6992 93.6953Z" fill="black"/>
</mask>
<g mask="url(#mask1_1192_2)">
<g filter="url(#filter0_f_1192_2)">
<path d="M10.3998 1.06046C8.98037 13.5653 19.7563 25.0561 34.4685 26.726C49.1807 28.3959 62.2579 19.6125 63.6773 7.10774C65.0967 -5.39705 54.3207 -16.8879 39.6086 -18.5578C24.8964 -20.2277 11.8192 -11.4443 10.3998 1.06046Z" fill="white"/>
</g>
<g filter="url(#filter1_f_1192_2)">
<path d="M67.1233 41.944C70.8093 57.8144 86.9457 67.626 103.165 63.8589C119.384 60.0918 129.544 44.1726 125.858 28.3022C122.172 12.4319 106.036 2.62023 89.8166 6.38731C73.5974 10.1544 63.4372 26.0737 67.1233 41.944Z" fill="white"/>
</g>
<g filter="url(#filter2_f_1192_2)">
<path d="M-29.3887 52.5895C-24.731 68.9682 -3.75472 77.3544 17.4632 71.3206C38.6812 65.2868 52.1059 47.1179 47.4483 30.7392C42.7907 14.3605 21.8144 5.97437 0.596405 12.0082C-20.6215 18.042 -34.0463 36.2109 -29.3887 52.5895Z" fill="white"/>
</g>
<g filter="url(#filter3_f_1192_2)">
<path d="M-29.3887 52.5895C-24.731 68.9682 -3.75472 77.3544 17.4632 71.3206C38.6812 65.2868 52.1059 47.1179 47.4483 30.7392C42.7907 14.3605 21.8144 5.97437 0.596405 12.0082C-20.6215 18.042 -34.0463 36.2109 -29.3887 52.5895Z" fill="white"/>
</g>
<g filter="url(#filter4_f_1192_2)">
<path d="M-12.5514 66.1667C-0.87536 78.0926 19.2334 77.34 32.3627 64.4857C45.4921 51.6314 46.6702 31.5431 34.9942 19.6172C23.3181 7.6913 3.20934 8.4439 -9.92001 21.2982C-23.0494 34.1525 -24.2275 54.2408 -12.5514 66.1667Z" fill="white"/>
</g>
<g filter="url(#filter5_f_1192_2)">
<path d="M48.5361 111.144C52.1618 126.755 67.2872 136.579 82.3195 133.088C97.3519 129.596 106.599 114.111 102.973 98.5007C99.3474 82.8902 84.2221 73.0657 69.1897 76.5571C54.1573 80.0485 44.9104 95.5337 48.5361 111.144Z" fill="white"/>
</g>
<g filter="url(#filter6_f_1192_2)">
<path d="M22.9051 -13.5446C15.3131 3.36754 23.6193 23.5691 41.4576 31.5769C59.2959 39.5847 79.9113 32.3663 87.5034 15.4542C95.0954 -1.45798 86.7892 -21.6596 68.9509 -29.6673C51.1126 -37.6751 30.4972 -30.4567 22.9051 -13.5446Z" fill="white"/>
</g>
<g filter="url(#filter7_f_1192_2)">
<path d="M2.56802 149.695C-15.8116 142.48 15.5987 83.1166 23.4093 63.2206C31.22 43.3247 52.4514 33.045 70.831 40.2603C89.2107 47.4756 110.996 87.2165 103.185 107.112C95.3742 127.008 20.9477 156.91 2.56802 149.695Z" fill="white"/>
</g>
<g filter="url(#filter8_f_1192_2)">
<path d="M113.934 75.808C109.013 81.551 96.1724 78.6225 85.253 69.2668C74.3335 59.9111 69.4704 47.6712 74.391 41.9281C79.3116 36.1851 92.1525 39.1137 103.072 48.4693C113.991 57.825 118.855 70.0649 113.934 75.808Z" fill="white"/>
</g>
<g filter="url(#filter9_f_1192_2)">
<path d="M77.202 46.5754C97.4402 60.2655 120.745 61.1648 129.256 48.5841C137.766 36.0034 128.258 14.7068 108.02 1.01665C87.7818 -12.6735 64.4766 -13.5728 55.9664 -0.992124C47.4563 11.5886 56.9637 32.8853 77.202 46.5754Z" fill="white"/>
</g>
<g filter="url(#filter10_f_1192_2)">
<path d="M10.759 24.3096C5.7451 36.4046 7.38263 48.5733 14.4165 51.4891C21.4504 54.4049 31.217 46.9637 36.2309 34.8687C41.2448 22.7737 39.6072 10.605 32.5734 7.68918C25.5395 4.77335 15.7729 12.2146 10.759 24.3096Z" fill="white"/>
</g>
</g>
</g>
</g>
<defs>
<filter id="filter0_f_1192_2" x="2.49349" y="-26.5424" width="69.0899" height="61.2528" filterUnits="userSpaceOnUse" color-interpolation-filters="sRGB">
<feFlood flood-opacity="0" result="BackgroundImageFix"/>
<feBlend mode="normal" in="SourceGraphic" in2="BackgroundImageFix" result="shape"/>
<feGaussianBlur stdDeviation="3.89034" result="effect1_foregroundBlur_1192_2"/>
</filter>
<filter id="filter1_f_1192_2" x="28.7523" y="-32.0336" width="135.477" height="134.313" filterUnits="userSpaceOnUse" color-interpolation-filters="sRGB">
<feFlood flood-opacity="0" result="BackgroundImageFix"/>
<feBlend mode="normal" in="SourceGraphic" in2="BackgroundImageFix" result="shape"/>
<feGaussianBlur stdDeviation="18.8078" result="effect1_foregroundBlur_1192_2"/>
</filter>
<filter id="filter2_f_1192_2" x="-62.2886" y="-21.926" width="142.637" height="127.18" filterUnits="userSpaceOnUse" color-interpolation-filters="sRGB">
<feFlood flood-opacity="0" result="BackgroundImageFix"/>
<feBlend mode="normal" in="SourceGraphic" in2="BackgroundImageFix" result="shape"/>
<feGaussianBlur stdDeviation="15.9884" result="effect1_foregroundBlur_1192_2"/>
</filter>
<filter id="filter3_f_1192_2" x="-62.2886" y="-21.926" width="142.637" height="127.18" filterUnits="userSpaceOnUse" color-interpolation-filters="sRGB">
<feFlood flood-opacity="0" result="BackgroundImageFix"/>
<feBlend mode="normal" in="SourceGraphic" in2="BackgroundImageFix" result="shape"/>
<feGaussianBlur stdDeviation="15.9884" result="effect1_foregroundBlur_1192_2"/>
</filter>
<filter id="filter4_f_1192_2" x="-52.5693" y="-20.8342" width="127.582" height="127.453" filterUnits="userSpaceOnUse" color-interpolation-filters="sRGB">
<feFlood flood-opacity="0" result="BackgroundImageFix"/>
<feBlend mode="normal" in="SourceGraphic" in2="BackgroundImageFix" result="shape"/>
<feGaussianBlur stdDeviation="15.9884" result="effect1_foregroundBlur_1192_2"/>
</filter>
<filter id="filter5_f_1192_2" x="17.3619" y="45.4651" width="116.786" height="118.714" filterUnits="userSpaceOnUse" color-interpolation-filters="sRGB">
<feFlood flood-opacity="0" result="BackgroundImageFix"/>
<feBlend mode="normal" in="SourceGraphic" in2="BackgroundImageFix" result="shape"/>
<feGaussianBlur stdDeviation="15.1937" result="effect1_foregroundBlur_1192_2"/>
</filter>
<filter id="filter6_f_1192_2" x="-7.44707" y="-60.4742" width="125.303" height="122.858" filterUnits="userSpaceOnUse" color-interpolation-filters="sRGB">
<feFlood flood-opacity="0" result="BackgroundImageFix"/>
<feBlend mode="normal" in="SourceGraphic" in2="BackgroundImageFix" result="shape"/>
<feGaussianBlur stdDeviation="13.7698" result="effect1_foregroundBlur_1192_2"/>
</filter>
<filter id="filter7_f_1192_2" x="-27.7085" y="13.3601" width="157.119" height="162.029" filterUnits="userSpaceOnUse" color-interpolation-filters="sRGB">
<feFlood flood-opacity="0" result="BackgroundImageFix"/>
<feBlend mode="normal" in="SourceGraphic" in2="BackgroundImageFix" result="shape"/>
<feGaussianBlur stdDeviation="12.297" result="effect1_foregroundBlur_1192_2"/>
</filter>
<filter id="filter8_f_1192_2" x="50.4637" y="16.9811" width="87.3977" height="83.7742" filterUnits="userSpaceOnUse" color-interpolation-filters="sRGB">
<feFlood flood-opacity="0" result="BackgroundImageFix"/>
<feBlend mode="normal" in="SourceGraphic" in2="BackgroundImageFix" result="shape"/>
<feGaussianBlur stdDeviation="11.0036" result="effect1_foregroundBlur_1192_2"/>
</filter>
<filter id="filter9_f_1192_2" x="34.2604" y="-28.4568" width="116.701" height="104.506" filterUnits="userSpaceOnUse" color-interpolation-filters="sRGB">
<feFlood flood-opacity="0" result="BackgroundImageFix"/>
<feBlend mode="normal" in="SourceGraphic" in2="BackgroundImageFix" result="shape"/>
<feGaussianBlur stdDeviation="9.29385" result="effect1_foregroundBlur_1192_2"/>
</filter>
<filter id="filter10_f_1192_2" x="-15.1521" y="-15.9488" width="77.294" height="91.0762" filterUnits="userSpaceOnUse" color-interpolation-filters="sRGB">
<feFlood flood-opacity="0" result="BackgroundImageFix"/>
<feBlend mode="normal" in="SourceGraphic" in2="BackgroundImageFix" result="shape"/>
<feGaussianBlur stdDeviation="11.5027" result="effect1_foregroundBlur_1192_2"/>
</filter>
<clipPath id="clip0_1192_2">
<rect width="113" height="113" fill="white"/>
</clipPath>
</defs>
</svg>
